<?xml version="1.0" encoding="UTF-8"?>
<svg width="1668px" height="849px" viewBox="0 0 1668 849" version="1.1" xmlns="http://www.w3.org/2000/svg" xmlns:xlink="http://www.w3.org/1999/xlink">
    <title>Hedwi mail</title>
    <defs>
        <polygon id="path-1" points="0 0 20 0 20 20 0 20"></polygon>
        <path d="M20,0 L100,0 C111.045695,2.37124554e-15 120,8.954305 120,20 C120,31.045695 111.045695,40 100,40 L20,40 C8.954305,40 1.3527075e-15,31.045695 0,20 C-1.3527075e-15,8.954305 8.954305,2.02906125e-15 20,0 Z" id="path-3"></path>
        <filter x="-10.0%" y="-27.5%" width="121.7%" height="165.0%" filterUnits="objectBoundingBox" id="filter-4">
            <feOffset dx="1" dy="2" in="SourceAlpha" result="shadowOffsetOuter1"></feOffset>
            <feGaussianBlur stdDeviation="4" in="shadowOffsetOuter1" result="shadowBlurOuter1"></feGaussianBlur>
            <feComposite in="shadowBlurOuter1" in2="SourceAlpha" operator="out" result="shadowBlurOuter1"></feComposite>
            <feColorMatrix values="0 0 0 0 0.494579082   0 0 0 0 0.494579082   0 0 0 0 0.494579082  0 0 0 0.5 0" type="matrix" in="shadowBlurOuter1"></feColorMatrix>
        </filter>
        <path d="M4,0 L516,0 C518.209139,-4.05812251e-16 520,1.790861 520,4 L520,480 L520,480 L0,480 L0,4 C-2.705415e-16,1.790861 1.790861,4.05812251e-16 4,0 Z" id="path-5"></path>
        <filter x="-4.9%" y="-4.7%" width="109.8%" height="110.8%" filterUnits="objectBoundingBox" id="filter-6">
            <feMorphology radius="1.5" operator="erode" in="SourceAlpha" result="shadowSpreadOuter1"></feMorphology>
            <feOffset dx="0" dy="5" in="shadowSpreadOuter1" result="shadowOffsetOuter1"></feOffset>
            <feGaussianBlur stdDeviation="2.5" in="shadowOffsetOuter1" result="shadowBlurOuter1"></feGaussianBlur>
            <feColorMatrix values="0 0 0 0 0   0 0 0 0 0   0 0 0 0 0  0 0 0 0.02 0" type="matrix" in="shadowBlurOuter1" result="shadowMatrixOuter1"></feColorMatrix>
            <feMorphology radius="1" operator="dilate" in="SourceAlpha" result="shadowSpreadOuter2"></feMorphology>
            <feOffset dx="0" dy="3" in="shadowSpreadOuter2" result="shadowOffsetOuter2"></feOffset>
            <feGaussianBlur stdDeviation="7" in="shadowOffsetOuter2" result="shadowBlurOuter2"></feGaussianBlur>
            <feColorMatrix values="0 0 0 0 0   0 0 0 0 0   0 0 0 0 0  0 0 0 0.12 0" type="matrix" in="shadowBlurOuter2" result="shadowMatrixOuter2"></feColorMatrix>
            <feMorphology radius="0.5" operator="dilate" in="SourceAlpha" result="shadowSpreadOuter3"></feMorphology>
            <feOffset dx="0" dy="8" in="shadowSpreadOuter3" result="shadowOffsetOuter3"></feOffset>
            <feGaussianBlur stdDeviation="5" in="shadowOffsetOuter3" result="shadowBlurOuter3"></feGaussianBlur>
            <feColorMatrix values="0 0 0 0 0   0 0 0 0 0   0 0 0 0 0  0 0 0 0.14 0" type="matrix" in="shadowBlurOuter3" result="shadowMatrixOuter3"></feColorMatrix>
            <feMerge>
                <feMergeNode in="shadowMatrixOuter1"></feMergeNode>
                <feMergeNode in="shadowMatrixOuter2"></feMergeNode>
                <feMergeNode in="shadowMatrixOuter3"></feMergeNode>
            </feMerge>
        </filter>
        <path d="M1121.5,790.5 L1641.5,790.5" id="path-7"></path>
        <filter x="-0.3%" y="-150.0%" width="100.6%" height="400.0%" filterUnits="objectBoundingBox" id="filter-8">
            <feMorphology radius="0.5" operator="dilate" in="SourceAlpha" result="shadowSpreadOuter1"></feMorphology>
            <feOffset dx="0" dy="0" in="shadowSpreadOuter1" result="shadowOffsetOuter1"></feOffset>
            <feMorphology radius="1" operator="erode" in="SourceAlpha" result="shadowInner"></feMorphology>
            <feOffset dx="0" dy="0" in="shadowInner" result="shadowInner"></feOffset>
            <feComposite in="shadowOffsetOuter1" in2="shadowInner" operator="out" result="shadowOffsetOuter1"></feComposite>
            <feGaussianBlur stdDeviation="0.5" in="shadowOffsetOuter1" result="shadowBlurOuter1"></feGaussianBlur>
            <feColorMatrix values="0 0 0 0 0.705036993   0 0 0 0 0.705036993   0 0 0 0 0.705036993  0 0 0 0.5 0" type="matrix" in="shadowBlurOuter1"></feColorMatrix>
        </filter>
    </defs>
    <g id="Gmail---email" stroke="none" stroke-width="1" fill="none" fill-rule="evenodd">
        <rect fill="#FFFFFF" x="0" y="0" width="1668" height="849"></rect>
        <g id="Mail-folders" transform="translate(18.000000, 83.000000)">
            <g id="sidebar" transform="translate(15.000000, 56.000000)">
                <rect id="矩形备份-9" fill="#FFFFFF" x="0" y="370" width="189" height="32"></rect>
                <rect id="矩形备份-5" x="0" y="205" width="189" height="32"></rect>
                <rect id="矩形备份-8" x="0" y="329" width="189" height="32"></rect>
                <rect id="矩形备份-6" x="0" y="247" width="189" height="32"></rect>
                <rect id="矩形备份-7" x="0" y="288" width="189" height="32"></rect>
                <rect id="矩形备份-4" x="0" y="164" width="189" height="32"></rect>
                <rect id="矩形备份-3" x="0" y="123" width="189" height="32"></rect>
                <rect id="矩形备份-2" x="0" y="82" width="189" height="32"></rect>
                <rect id="矩形备份" x="0" y="41" width="189" height="32"></rect>
                <rect id="矩形" x="0" y="0" width="189" height="32"></rect>
                <text id="显示更多标签" font-family="SimHei" font-size="14" font-weight="normal" letter-spacing="-0.03733334" fill="#666666">
                    <tspan x="37" y="390">显示更多标签</tspan>
                </text>
                <text id="待办" font-family="SimHei" font-size="14" font-weight="normal" letter-spacing="-0.03733334" fill="#666666">
                    <tspan x="37" y="309">待办</tspan>
                </text>
                <text id="已延后" font-family="SimHei" font-size="14" font-weight="normal" letter-spacing="-0.03733334" fill="#666666">
                    <tspan x="37" y="144">已延后</tspan>
                </text>
                <text id="已发送" font-family="SimHei" font-size="14" font-weight="normal" letter-spacing="-0.03733334" fill="#666666">
                    <tspan x="37" y="186">已发送</tspan>
                </text>
                <text id="未来" font-family="SimHei" font-size="14" font-weight="normal" letter-spacing="-0.03733334" fill="#666666">
                    <tspan x="37" y="350">未来</tspan>
                </text>
                <text id="所有邮件" font-family="SimHei" font-size="14" font-weight="normal" letter-spacing="-0.03733334" fill="#414244">
                    <tspan x="37" y="268">所有邮件</tspan>
                </text>
                <text id="草稿箱" font-family="SimHei" font-size="14" font-weight="normal" letter-spacing="-0.03733334" fill="#666666">
                    <tspan x="37" y="224">草稿箱</tspan>
                </text>
                <text id="重要邮件" font-family="SimHei" font-size="14" font-weight="normal" letter-spacing="-0.03733334" fill="#417FED">
                    <tspan x="37" y="105">重要邮件</tspan>
                </text>
                <text id="已加星标" font-family="SimHei" font-size="14" font-weight="normal" letter-spacing="-0.03733334" fill="#666666">
                    <tspan x="37" y="62">已加星标</tspan>
                </text>
                <text id="收件箱" font-family="SimHei" font-size="14" font-weight="normal" letter-spacing="-0.03733334" fill="#666666">
                    <tspan x="37" y="21">收件箱</tspan>
                </text>
                <g id="Group" transform="translate(4.000000, 375.000000)">
                    <polygon id="Shape" points="0 0 20 0 20 20 0 20"></polygon>
                    <polygon id="Shape" fill="#666666" points="13.825 7 10 10.8166667 6.175 7 5 8.175 10 13.175 15 8.175"></polygon>
                </g>
                <g id="Group" transform="translate(4.000000, 295.000000)">
                    <polygon id="Shape" points="0 0 20 0 20 20 0 20"></polygon>
                    <path d="M12.8333333,3 L3.66666667,3.00833333 C2.75,3.00833333 2,3.75 2,4.66666667 L2,13 C2,13.9166667 2.75,14.6583333 3.66666667,14.6583333 L12.8333333,14.6666667 C13.3916667,14.6666667 13.8916667,14.3916667 14.1916667,13.9666667 L17.8333333,8.83333333 L14.1916667,3.7 C13.8916667,3.275 13.3916667,3 12.8333333,3 Z" id="Shape" fill="#666666"></path>
                </g>
                <g id="Group" transform="translate(4.000000, 335.000000)">
                    <polygon id="Shape" points="0 0 20 0 20 20 0 20"></polygon>
                    <path d="M12.8333333,4 L3.66666667,4.00833333 C2.75,4.00833333 2,4.75 2,5.66666667 L2,14 C2,14.9166667 2.75,15.6583333 3.66666667,15.6583333 L12.8333333,15.6666667 C13.3916667,15.6666667 13.8916667,15.3916667 14.1916667,14.9666667 L17.8333333,9.83333333 L14.1916667,4.7 C13.8916667,4.275 13.3916667,4 12.8333333,4 Z" id="Shape" fill="#666666"></path>
                </g>
                <g id="Group" transform="translate(4.000000, 210.000000)">
                    <polygon id="Shape" points="0 0 20 0 20 20 0 20"></polygon>
                    <path d="M11.6666667,1.66666667 L5,1.66666667 C4.08333333,1.66666667 3.34166667,2.41666667 3.34166667,3.33333333 L3.33333333,16.6666667 C3.33333333,17.5833333 4.075,18.3333333 4.99166667,18.3333333 L15,18.3333333 C15.9166667,18.3333333 16.6666667,17.5833333 16.6666667,16.6666667 L16.6666667,6.66666667 L11.6666667,1.66666667 L11.6666667,1.66666667 Z M13.3333333,15 L6.66666667,15 L6.66666667,13.3333333 L13.3333333,13.3333333 L13.3333333,15 L13.3333333,15 Z M13.3333333,11.6666667 L6.66666667,11.6666667 L6.66666667,10 L13.3333333,10 L13.3333333,11.6666667 L13.3333333,11.6666667 Z M10.8333333,7.5 L10.8333333,2.91666667 L15.4166667,7.5 L10.8333333,7.5 L10.8333333,7.5 Z" id="Shape" fill="#666666"></path>
                </g>
                <g id="label_import" transform="translate(4.000000, 93.000000)" fill="#417FED" fill-rule="nonzero">
                    <path d="M0,14 L11,14 C11.67,14 12.27,13.6797713 12.63,13.1694067 L17,7.00500357 L12.63,0.840600429 C12.27,0.330235883 11.67,0 11,0 L0,0 L5,7.00500357 L0,14 L0,14 Z" id="路径"></path>
                </g>
                <g id="Group" transform="translate(4.000000, 251.000000)">
                    <polygon id="Shape" points="0 0 20 0 20 20 0 20"></polygon>
                    <path d="M17,5 L3.66666667,5 C2.75,5 2.00833333,5.75 2.00833333,6.66666667 L2,16.6666667 C2,17.5833333 2.75,18.3333333 3.66666667,18.3333333 L17,18.3333333 C17.9166667,18.3333333 18.6666667,17.5833333 18.6666667,16.6666667 L18.6666667,6.66666667 C18.6666667,5.75 17.9166667,5 17,5 L17,5 Z M17,8.33333333 L10.3333333,12.5 L3.66666667,8.33333333 L3.66666667,6.66666667 L10.3333333,10.8333333 L17,6.66666667 L17,8.33333333 L17,8.33333333 Z" id="Shape" fill="#666666"></path>
                </g>
                <g id="Group" transform="translate(4.000000, 6.000000)">
                    <polygon id="Shape" points="20 0 20 20 0 20 0 0"></polygon>
                    <path d="M16.3333333,2 L4.65833333,2 C3.73333333,2 3.00833333,2.74166667 3.00833333,3.66666667 L3,15.3333333 C3,16.25 3.73333333,17 4.65833333,17 L16.3333333,17 C17.25,17 18,16.25 18,15.3333333 L18,3.66666667 C18,2.74166667 17.25,2 16.3333333,2 L16.3333333,2 Z M17,12.4615385 L13.5738758,12.4615385 C13.5738758,13.8661538 12.4175589,15 11.0042827,15 C9.59100642,15 8.43468951,13.8661538 8.43468951,12.4615385 L5,12.4615385 L5,4 L17,4 L17,12.4615385 L17,12.4615385 Z" id="Shape" fill="#808080"></path>
                </g>
                <g id="ic_star_24px" transform="translate(4.000000, 47.000000)" fill="#666666" fill-rule="nonzero">
                    <polygon id="Shape" points="10 16.0736842 16.18 20 14.54 12.6 20 7.62105263 12.81 6.97894737 10 0 7.19 6.97894737 0 7.62105263 5.46 12.6 3.82 20"></polygon>
                </g>
                <g id="baseline-watch_later-24px" transform="translate(4.000000, 129.000000)">
                    <mask id="mask-2" fill="white">
                        <use xlink:href="#path-1"></use>
                    </mask>
                    <g id="a"></g>
                    <path d="M10,1.66666667 C5.41666667,1.66666667 1.66666667,5.41666667 1.66666667,10 C1.66666667,14.5833333 5.41666667,18.3333333 10,18.3333333 C14.5833333,18.3333333 18.3333333,14.5833333 18.3333333,10 C18.3333333,5.41666667 14.5833333,1.66666667 10,1.66666667 Z M13.5,13.5 L9.16666667,10.8333333 L9.16666667,5.83333333 L10.4166667,5.83333333 L10.4166667,10.1666667 L14.1666667,12.4166667 L13.5,13.5 Z" id="Shape" fill="#666666" fill-rule="nonzero" mask="url(#mask-2)"></path>
                </g>
                <g id="Group" transform="translate(4.000000, 171.000000)">
                    <polygon id="Shape" points="0 0 20 0 20 20 0 20"></polygon>
                    <polygon id="Shape" fill="#666666" points="1.675 17.5 19.1666667 10 1.675 2.5 1.66666667 8.33333333 14.1666667 10 1.66666667 11.6666667"></polygon>
                </g>
            </g>
            <g id="Compose">
                <g id="Rectangle">
                    <use fill="black" fill-opacity="1" filter="url(#filter-4)" xlink:href="#path-3"></use>
                    <path stroke-opacity="0.25" stroke="#808080" stroke-width="1" d="M100,0.5 C105.384776,0.5 110.259776,2.68261184 113.788582,6.21141777 C117.317388,9.74022369 119.5,14.6152237 119.5,20 C119.5,25.3847763 117.317388,30.2597763 113.788582,33.7885822 C110.259776,37.3173882 105.384776,39.5 100,39.5 L100,39.5 L20,39.5 C14.6152237,39.5 9.74022369,37.3173882 6.21141777,33.7885822 C2.68261184,30.2597763 0.5,25.3847763 0.5,20 C0.5,14.6152237 2.68261184,9.74022369 6.21141777,6.21141777 C9.74022369,2.68261184 14.6152237,0.5 20,0.5 L20,0.5 Z" stroke-linejoin="square" fill="#FFFFFF" fill-rule="evenodd"></path>
                </g>
                <text id="写邮件" font-family="PingFangSC-Regular, PingFang SC" font-size="14" font-weight="normal" letter-spacing="0.131764703" fill="#3C4043">
                    <tspan x="41.976378" y="25">写邮件</tspan>
                </text>
                <g id="Group" transform="translate(16.456693, 10.000000)">
                    <path d="M2.5,14.375 L2.5,17.5 L5.625,17.5 L14.8416667,8.28333333 L11.7166667,5.15833333 L2.5,14.375 L2.5,14.375 Z M17.2583333,5.86666667 C17.5833333,5.54166667 17.5833333,5.01666667 17.2583333,4.69166667 L15.3083333,2.74166667 C14.9833333,2.41666667 14.4583333,2.41666667 14.1333333,2.74166667 L12.6083333,4.26666667 L15.7333333,7.39166667 L17.2583333,5.86666667 L17.2583333,5.86666667 Z" id="Shape" fill="#606060"></path>
                    <polygon id="Shape" points="0 0 20 0 20 20 0 20"></polygon>
                </g>
            </g>
        </g>
        <line x1="-0.5" y1="73.5" x2="250" y2="74" id="直线" stroke="#F0F2F3" stroke-width="2" stroke-linecap="square"></line>
        <g id="Top-bar" transform="translate(32.000000, 9.000000)">
            <g id="Gmail-Search-Bar" transform="translate(218.000000, 0.000000)">
                <path d="M8,0 L699,0 C703.418278,-8.11624501e-16 707,3.581722 707,8 L707,47 C707,51.418278 703.418278,55 699,55 L8,55 C3.581722,55 5.41083001e-16,51.418278 0,47 L0,8 C-5.41083001e-16,3.581722 3.581722,8.11624501e-16 8,0 Z" id="Rectangle-2" fill="#F1F3F4"></path>
                <text id="搜索邮件" font-family="PingFangSC-Regular, PingFang SC" font-size="17" font-weight="normal" letter-spacing="0.159999996" fill="#757575">
                    <tspan x="49.1239782" y="35">搜索邮件</tspan>
                </text>
                <g id="ic_search_24px" transform="translate(16.374659, 18.000000)" fill="#64676C" fill-rule="nonzero">
                    <path d="M11.7028726,11.3207547 L10.9632511,11.3207547 L10.7011067,11.0428816 C11.618612,9.86963979 12.1709875,8.3464837 12.1709875,6.68953688 C12.1709875,2.9948542 9.4465588,0 6.08549377,0 C2.72442875,0 0,2.9948542 0,6.68953688 C0,10.3842196 2.72442875,13.3790738 6.08549377,13.3790738 C7.59282377,13.3790738 8.97844389,12.7718696 10.0457459,11.7632933 L10.2985279,12.051458 L10.2985279,12.864494 L14.979677,18 L16.3746594,16.4665523 L11.7028726,11.3207547 Z M6.08549377,11.3207547 C3.75428154,11.3207547 1.87245962,9.25214408 1.87245962,6.68953688 C1.87245962,4.12692967 3.75428154,2.05831904 6.08549377,2.05831904 C8.416706,2.05831904 10.2985279,4.12692967 10.2985279,6.68953688 C10.2985279,9.25214408 8.416706,11.3207547 6.08549377,11.3207547 Z" id="Shape"></path>
                </g>
                <polygon id="Path-2" fill="#AEB3B8" points="675.213896 25 684.846049 25 680.029973 31"></polygon>
            </g>
            <g id="baseline-menu-24px" transform="translate(0.000000, 21.000000)" fill="#64676C" fill-rule="nonzero">
                <path d="M0,13 L24,13 L24,10.8333333 L0,10.8333333 L0,13 Z M0,7.58333333 L24,7.58333333 L24,5.41666667 L0,5.41666667 L0,7.58333333 Z M0,0 L0,2.16666667 L24,2.16666667 L24,0 L0,0 Z" id="Shape"></path>
            </g>
            <text id="海未邮箱" font-family="PingFangSC-Regular, PingFang SC" font-size="16" font-weight="normal" letter-spacing="-0.412307703" fill="#64686C">
                <tspan x="101" y="34">海未邮箱</tspan>
            </text>
            <g id="icons8-letter的副本" transform="translate(52.000000, 11.000000)" fill-rule="nonzero">
                <path d="M5.14583333,32.175 L33.6458333,32.175 C35.6052083,32.175 37.2083333,30.4998476 37.2083333,28.452439 L37.2083333,5.37256098 C37.2083333,3.32515244 35.6052083,1.65 33.6458333,1.65 L5.14583333,1.65 C3.18645833,1.65 1.58333333,3.32515244 1.58333333,5.37256098 L1.58333333,28.452439 C1.58333333,30.4998476 3.18645833,32.175 5.14583333,32.175 Z" id="路径" fill="#FFF0B3"></path>
                <path d="M9.5,30.1125 C9.5,31.2675 10.2845345,32.175 11.283033,32.175 L33.6422673,32.175 C35.6036036,32.175 37.2083333,30.31875 37.2083333,28.05 L37.2083333,28.05 L11.283033,28.05 C10.2845345,28.05 9.5,28.9575 9.5,30.1125 L9.5,30.1125 Z" id="路径" fill="#FCCA3D"></path>
                <g id="编组" transform="translate(0.000000, 8.250000)" fill="#666666">
                    <path d="M33.3396226,24.75 L4.66037736,24.75 C2.07924528,24.75 0,22.5415385 0,19.8 L0,1.14230769 C0,0.495 0.466037736,0 1.0754717,0 C1.68490566,0 2.1509434,0.495 2.1509434,1.14230769 L2.1509434,19.8 C2.1509434,21.285 3.26226415,22.4653846 4.66037736,22.4653846 L33.3396226,22.4653846 C34.7377358,22.4653846 35.8490566,21.2469231 35.8490566,20.1807692 L35.8490566,1.14230769 C35.8490566,0.495 36.3150943,0 36.9245283,0 C37.5339623,0 38,0.495 38,1.14230769 L38,20.1807692 C38,22.6176923 35.8132075,24.75 33.3396226,24.75 Z" id="路径"></path>
                    <path d="M19,9.9 C13.909434,9.9 9.17735849,7.76769231 5.66415094,3.84576923 C5.26981132,3.38884615 5.26981132,2.66538462 5.7,2.24653846 C6.13018868,1.82769231 6.81132075,1.82769231 7.20566038,2.28461538 C10.3245283,5.71153846 14.4830189,7.61538462 18.9641509,7.61538462 C23.445283,7.61538462 27.6396226,5.71153846 30.7226415,2.28461538 C31.1169811,1.82769231 31.7981132,1.82769231 32.2283019,2.24653846 C32.6584906,2.66538462 32.6584906,3.38884615 32.2641509,3.84576923 C28.8226415,7.76769231 24.090566,9.9 19,9.9 Z" id="路径"></path>
                </g>
                <path d="M36.9245283,5.775 C36.3150943,5.775 35.8490566,5.30578125 35.8490566,4.6921875 C35.8490566,3.28453125 34.7377358,2.165625 33.3396226,2.165625 L4.66037736,2.165625 C3.26226415,2.165625 2.1509434,3.28453125 2.1509434,4.6921875 C2.1509434,5.30578125 1.68490566,5.775 1.0754717,5.775 C0.466037736,5.775 0,5.30578125 0,4.6921875 C0,2.0934375 2.07924528,0 4.66037736,0 L33.3396226,0 C35.9207547,0 38,2.0934375 38,4.6921875 C38,5.30578125 37.5339623,5.775 36.9245283,5.775 Z" id="路径" fill="#666666"></path>
            </g>
        </g>
        <g id="Group" transform="translate(1617.000000, 24.000000)">
            <polygon id="Shape" points="0 0 24 0 24 24 0 24"></polygon>
            <path d="M12,2 C6.48,2 2,6.48 2,12 C2,17.52 6.48,22 12,22 C17.52,22 22,17.52 22,12 C22,6.48 17.52,2 12,2 L12,2 Z M12,5 C13.66,5 15,6.34 15,8 C15,9.66 13.66,11 12,11 C10.34,11 9,9.66 9,8 C9,6.34 10.34,5 12,5 L12,5 Z M12,19.2 C9.5,19.2 7.29,17.92 6,15.98 C6.03,13.99 10,12.9 12,12.9 C13.99,12.9 17.97,13.99 18,15.98 C16.71,17.92 14.5,19.2 12,19.2 L12,19.2 Z" id="Shape" fill="#606060"></path>
        </g>
        <g id="Group" transform="translate(1573.000000, 24.000000)">
            <polygon id="Shape" points="0 0 24 0 24 24 0 24"></polygon>
            <path d="M4,8 L8,8 L8,4 L4,4 L4,8 L4,8 Z M10,20 L14,20 L14,16 L10,16 L10,20 L10,20 Z M4,20 L8,20 L8,16 L4,16 L4,20 L4,20 Z M4,14 L8,14 L8,10 L4,10 L4,14 L4,14 Z M10,14 L14,14 L14,10 L10,10 L10,14 L10,14 Z M16,4 L16,8 L20,8 L20,4 L16,4 L16,4 Z M10,8 L14,8 L14,4 L10,4 L10,8 L10,8 Z M16,14 L20,14 L20,10 L16,10 L16,14 L16,14 Z M16,20 L20,20 L20,16 L16,16 L16,20 L16,20 Z" id="Shape" fill="#606060"></path>
        </g>
        <g id="Group" transform="translate(1529.000000, 24.000000)">
            <polygon id="Shape" points="0 0 24 0 24 24 0 24"></polygon>
            <path d="M19.43,12.98 C19.47,12.66 19.5,12.34 19.5,12 C19.5,11.66 19.47,11.34 19.43,11.02 L21.54,9.37 C21.73,9.22 21.78,8.95 21.66,8.73 L19.66,5.27 C19.54,5.05 19.27,4.97 19.05,5.05 L16.56,6.05 C16.04,5.65 15.48,5.32 14.87,5.07 L14.49,2.42 C14.46,2.18 14.25,2 14,2 L10,2 C9.75,2 9.54,2.18 9.51,2.42 L9.13,5.07 C8.52,5.32 7.96,5.66 7.44,6.05 L4.95,5.05 C4.72,4.96 4.46,5.05 4.34,5.27 L2.34,8.73 C2.21,8.95 2.27,9.22 2.46,9.37 L4.57,11.02 C4.53,11.34 4.5,11.67 4.5,12 C4.5,12.33 4.53,12.66 4.57,12.98 L2.46,14.63 C2.27,14.78 2.22,15.05 2.34,15.27 L4.34,18.73 C4.46,18.95 4.73,19.03 4.95,18.95 L7.44,17.95 C7.96,18.35 8.52,18.68 9.13,18.93 L9.51,21.58 C9.54,21.82 9.75,22 10,22 L14,22 C14.25,22 14.46,21.82 14.49,21.58 L14.87,18.93 C15.48,18.68 16.04,18.34 16.56,17.95 L19.05,18.95 C19.28,19.04 19.54,18.95 19.66,18.73 L21.66,15.27 C21.78,15.05 21.73,14.78 21.54,14.63 L19.43,12.98 L19.43,12.98 Z M12,15.5 C10.07,15.5 8.5,13.93 8.5,12 C8.5,10.07 10.07,8.5 12,8.5 C13.93,8.5 15.5,10.07 15.5,12 C15.5,13.93 13.93,15.5 12,15.5 L12,15.5 Z" id="Shape" fill="#606060"></path>
        </g>
        <g id="Mail-List" transform="translate(250.000000, 130.000000)">
            <g id="Mail-2" transform="translate(0.000000, 1.486561)">
                <g id="Mail">
                    <rect id="Rectangle-8" stroke="#DBDBDB" fill="#FFFFFF" x="0" y="0" width="425" height="40"></rect>
                    <g id="Group" transform="translate(50.000000, 8.800000)">
                        <polygon id="Shape" points="0 0 22 0 22 22 0 22"></polygon>
                        <path d="M20.1666667,8.47 L13.5758333,7.90166667 L11,1.83333333 L8.42416667,7.91083333 L1.83333333,8.47 L6.83833333,12.8058333 L5.335,19.25 L11,15.8308333 L16.665,19.25 L15.1708333,12.8058333 L20.1666667,8.47 L20.1666667,8.47 Z M11,14.1166667 L7.55333333,16.1975 L8.47,12.2741667 L5.42666667,9.63416667 L9.44166667,9.28583333 L11,5.59166667 L12.5675,9.295 L16.5825,9.64333333 L13.5391667,12.2833333 L14.4558333,16.2066667 L11,14.1166667 L11,14.1166667 Z" id="Shape" fill-opacity="0.38" fill="#000000"></path>
                    </g>
                    <g id="label_import" transform="translate(86.000000, 13.000000)" fill="#F9D788" fill-rule="nonzero" stroke="#F9D788">
                        <path d="M0,14 L11,14 C11.67,14 12.27,13.6797713 12.63,13.1694067 L17,7.00500357 L12.63,0.840600429 C12.27,0.330235883 11.67,0 11,0 L0,0 L5,7.00500357 L0,14 L0,14 Z" id="路径"></path>
                    </g>
                </g>
                <text id="Hedwi-海未邮箱" opacity="0.600000024" font-family="SimHei" font-size="16" font-weight="normal" fill="#1B1B1B">
                    <tspan x="124" y="27.05">Hedwi 海未邮箱</tspan>
                </text>
                <g id="Group" transform="translate(16.000000, 10.000000)">
                    <polygon id="Shape" points="0 0 20 0 20 20 8.21765137 20 0 20"></polygon>
                    <path d="M15.8333333,4.16666667 L15.8333333,15.8333333 L4.16666667,15.8333333 L4.16666667,4.16666667 L15.8333333,4.16666667 L15.8333333,4.16666667 Z M4.16666667,2.5 C3.25,2.5 2.5,3.25 2.5,4.16666667 L2.5,15.8333333 C2.5,16.75 3.25,17.5 4.16666667,17.5 L15.8333333,17.5 C16.75,17.5 17.5,16.75 17.5,15.8333333 L17.5,4.16666667 C17.5,3.25 16.75,2.5 15.8333333,2.5 L4.16666667,2.5 Z" id="Shape" fill-opacity="0.38" fill="#000000"></path>
                </g>
            </g>
            <line x1="2.5" y1="1.7191815e-16" x2="2.5" y2="39.6416265" id="直线-3" stroke="#427FED" stroke-width="3" stroke-linecap="square"></line>
            <g id="Mail" transform="translate(0.000000, 177.644039)" fill="#FFFFFF">
                <rect id="Rectangle-8" x="0" y="0" width="404" height="180.864921"></rect>
            </g>
            <g id="Mail" transform="translate(0.000000, 358.508959)" fill="#FFFFFF">
                <rect id="Rectangle-8" x="0" y="0" width="404" height="180.864921"></rect>
            </g>
            <g id="Mail" transform="translate(0.000000, 538.135079)" fill="#FFFFFF">
                <rect id="Rectangle-8" x="0" y="0" width="404" height="180.864921"></rect>
            </g>
        </g>
        <g id="detail" transform="translate(695.000000, 144.000000)">
            <text id="Subject-Line" fill-rule="nonzero" font-family="PingFangSC-Regular, PingFang SC" font-size="26" font-weight="normal" letter-spacing="-0.0700000003" fill="#313234">
                <tspan x="56" y="28">Hedwi 海未邮箱</tspan>
            </text>
            <g id="Mail-body" transform="translate(56.000000, 58.000000)">
                <text id="Hi-&lt;hi@hedwi.com&gt;" font-family="PingFangSC-Regular, PingFang SC" font-size="15" font-weight="normal" letter-spacing="0.439999998">
                    <tspan x="0" y="17" fill="#666666">Hi</tspan>
                    <tspan x="15.52" y="17" fill="#353638"> </tspan>
                    <tspan x="20.515" y="17" fill="#757575">&lt;hi@hedwi.com&gt;</tspan>
                </text>
                <text id="发送至-我" font-family="SimHei" font-size="14" font-weight="normal" letter-spacing="-0.056" fill="#818488">
                    <tspan x="0" y="39">发送至 我</tspan>
                </text>
                <g id="Text" transform="translate(1.000000, 88.500000)" fill="#535456" font-family="PingFangSC-Regular, PingFang SC" font-size="30" font-weight="normal" letter-spacing="0.0749999983">
                    <text id="速度飞快-支持分屏浏览、回复-支持星标、">
                        <tspan x="0" y="32">速度飞快</tspan>
                        <tspan x="0" y="74">支持分屏浏览、回复</tspan>
                        <tspan x="0" y="116">支持星标、标签</tspan>
                        <tspan x="0" y="158">支持邮件过滤、搜索</tspan>
                        <tspan x="0" y="200">支持快捷键</tspan>
                        <tspan x="150.375" y="200" font-size="16" letter-spacing="0.0399999991"></tspan>
                    </text>
                </g>
                <g id="Reply" transform="translate(816.000000, 4.000000)" fill="#606060" fill-rule="nonzero">
                    <path d="M6.61111111,4.26666667 L6.61111111,0 L0,7.46666667 L6.61111111,14.9333333 L6.61111111,10.56 C11.3333333,10.56 14.6388889,12.2666667 17,16 C16.0555556,10.6666667 13.2222222,5.33333333 6.61111111,4.26666667 Z" id="Shape"></path>
                </g>
                <text id="Date-Received" font-family="SimHei" font-size="14" font-weight="normal" letter-spacing="0.150769231" fill="#818488">
                    <tspan x="585" y="20">2021-05-02,18:00:07</tspan>
                </text>
                <g id="icon-discard" transform="translate(852.000000, 0.000000)">
                    <rect id="bounds" x="0" y="0" width="24" height="24"></rect>
                    <path d="M12,16.32 C12.4533356,16.32 12.846665,16.486665 13.18,16.82 C13.513335,17.153335 13.68,17.5466644 13.68,18 C13.68,18.4533356 13.513335,18.846665 13.18,19.18 C12.846665,19.513335 12.4533356,19.68 12,19.68 C11.5466644,19.68 11.153335,19.513335 10.82,19.18 C10.486665,18.846665 10.32,18.4533356 10.32,18 C10.32,17.5466644 10.486665,17.153335 10.82,16.82 C11.153335,16.486665 11.5466644,16.32 12,16.32 Z M12,10.32 C12.4533356,10.32 12.846665,10.486665 13.18,10.82 C13.513335,11.153335 13.68,11.5466644 13.68,12 C13.68,12.4533356 13.513335,12.846665 13.18,13.18 C12.846665,13.513335 12.4533356,13.68 12,13.68 C11.5466644,13.68 11.153335,13.513335 10.82,13.18 C10.486665,12.846665 10.32,12.4533356 10.32,12 C10.32,11.5466644 10.486665,11.153335 10.82,10.82 C11.153335,10.486665 11.5466644,10.32 12,10.32 Z M12,7.68 C11.5466644,7.68 11.153335,7.513335 10.82,7.18 C10.486665,6.846665 10.32,6.4533356 10.32,6 C10.32,5.5466644 10.486665,5.153335 10.82,4.82 C11.153335,4.486665 11.5466644,4.32 12,4.32 C12.4533356,4.32 12.846665,4.486665 13.18,4.82 C13.513335,5.153335 13.68,5.5466644 13.68,6 C13.68,6.4533356 13.513335,6.846665 13.18,7.18 C12.846665,7.513335 12.4533356,7.68 12,7.68 Z" id="shape" fill="#606060" fill-rule="nonzero" opacity="0.55"></path>
                </g>
                <g id="Group" transform="translate(764.000000, 1.000000)">
                    <polygon id="Shape" points="0 0 22 0 22 22 0 22"></polygon>
                    <path d="M20.1666667,8.47 L13.5758333,7.90166667 L11,1.83333333 L8.42416667,7.91083333 L1.83333333,8.47 L6.83833333,12.8058333 L5.335,19.25 L11,15.8308333 L16.665,19.25 L15.1708333,12.8058333 L20.1666667,8.47 L20.1666667,8.47 Z M11,14.1166667 L7.55333333,16.1975 L8.47,12.2741667 L5.42666667,9.63416667 L9.44166667,9.28583333 L11,5.59166667 L12.5675,9.295 L16.5825,9.64333333 L13.5391667,12.2833333 L14.4558333,16.2066667 L11,14.1166667 L11,14.1166667 Z" id="Shape" fill-opacity="0.38" fill="#000000"></path>
                </g>
                <polygon id="Path" fill="#606060" points="70 36 74 32 66 32"></polygon>
            </g>
            <g id="cta_ghost" transform="translate(56.000000, 439.000000)">
                <path d="M4,0 L87,0 C89.209139,-8.49901461e-16 91,1.790861 91,4 L91,33 C91,35.209139 89.209139,37 87,37 L40.0026017,37 L40.0026017,37 L4,37 C1.790861,37 2.705415e-16,35.209139 0,33 L0,4 C-7.1463071e-16,1.790861 1.790861,-3.82769592e-17 4,0 Z" id="Rectangle-4" stroke="#DADCE0" fill="#FFFFFF"></path>
                <text id="回复" font-family="PingFangSC-Regular, PingFang SC" font-size="14" font-weight="normal" letter-spacing="0.1507692" fill="#64676C">
                    <tspan x="40.5543478" y="23">回复</tspan>
                </text>
                <g id="Reply" transform="translate(14.836957, 9.000000)" fill="#606060" fill-rule="nonzero">
                    <path d="M6.15458937,4.26666667 L6.15458937,0 L0,7.46666667 L6.15458937,14.9333333 L6.15458937,10.56 C10.5507246,10.56 13.6280193,12.2666667 15.826087,16 C14.9468599,10.6666667 12.3091787,5.33333333 6.15458937,4.26666667 Z" id="Shape"></path>
                </g>
            </g>
            <g id="cta_ghost" transform="translate(193.000000, 439.000000)">
                <rect id="Rectangle-4" stroke="#DADCE0" fill="#FFFFFF" x="0" y="0" width="91" height="37" rx="4"></rect>
                <text id="转发" font-family="PingFangSC-Regular, PingFang SC" font-size="14" font-weight="normal" letter-spacing="0.1507692" fill="#64676C">
                    <tspan x="40.4444444" y="23">转发</tspan>
                </text>
                <g id="sharp-forward-24px" transform="translate(18.200000, 10.000000)" fill="#606060" fill-rule="nonzero">
                    <g id="Sharp">
                        <polygon id="Shape" points="8.08888889 4 8.08888889 0 16.1777778 8 8.08888889 16 8.08888889 12 0 12 0 4"></polygon>
                    </g>
                </g>
            </g>
            <g id="label_import" transform="translate(263.000000, 12.000000)" fill="#F9D788" fill-rule="nonzero" stroke="#F9D788">
                <path d="M0,14 L11,14 C11.67,14 12.27,13.6797713 12.63,13.1694067 L17,7.00500357 L12.63,0.840600429 C12.27,0.330235883 11.67,0 11,0 L0,0 L5,7.00500357 L0,14 L0,14 Z" id="路径"></path>
            </g>
            <g id="编组-2" transform="translate(0.000000, 59.000000)">
                <ellipse id="椭圆形" stroke="#417FED" fill="#417FED" cx="20.5" cy="20" rx="20.5" ry="20"></ellipse>
                <path d="M20.5,20 C22.76525,20 24.6,18.21 24.6,16 C24.6,13.79 22.76525,12 20.5,12 C18.23475,12 16.4,13.79 16.4,16 C16.4,18.21 18.23475,20 20.5,20 Z M20.5,22 C17.76325,22 12.3,23.34 12.3,26 L12.3,28 L28.7,28 L28.7,26 C28.7,23.34 23.23675,22 20.5,22 Z" id="形状" fill="#FFFFFF" fill-rule="nonzero"></path>
            </g>
        </g>
        <g id="message" transform="translate(1121.000000, 369.000000)">
            <g id="message-bg">
                <use fill="black" fill-opacity="1" filter="url(#filter-6)" xlink:href="#path-5"></use>
                <use fill="#FFFFFF" fill-rule="evenodd" xlink:href="#path-5"></use>
            </g>
            <g id="main">
                <g id="title">
                    <path d="M10,0 L510,0 C515.522847,-1.01453063e-15 520,4.4771525 520,10 L520,40 L520,40 L0,40 L0,10 C-6.76353751e-16,4.4771525 4.4771525,1.01453063e-15 10,0 Z" id="background" fill="#404040"></path>
                    <text id="新邮件" font-family="STSongti-SC-Regular, Songti SC" font-size="14" font-weight="normal" letter-spacing="0.2" fill="#FFFFFF">
                        <tspan x="16" y="25">新邮件</tspan>
                    </text>
                    <g id="icons" transform="translate(445.000000, 13.000000)">
                        <g id="icon-close" transform="translate(48.000000, 0.000000)">
                            <rect id="bounds" x="0" y="0" width="14" height="14"></rect>
                            <path d="M10.4852814,2 L11.8994949,3.41421356 L8.364,6.95 L11.8994949,10.4852814 L10.4852814,11.8994949 L6.95,8.364 L3.41421356,11.8994949 L2,10.4852814 L5.536,6.95 L2,3.41421356 L3.41421356,2 L6.95,5.536 L10.4852814,2 Z" id="shape" fill-opacity="0.55" fill="#FFFFFF"></path>
                        </g>
                        <g id="icon-full-screen" transform="translate(24.000000, 0.000000)">
                            <rect id="bounds" x="0" y="0" width="14" height="14"></rect>
                            <path d="M12,2 L12,7 L10.353,5.353 L5.353,10.353 L7,12 L2,12 L2,7 L3.939,8.939 L8.939,3.939 L7,2 L12,2 Z" id="shape" fill-opacity="0.55" fill="#FFFFFF"></path>
                        </g>
                        <g id="icon-minimize">
                            <rect id="bounds" x="0" y="0" width="14" height="14"></rect>
                            <rect id="shape" fill-opacity="0.55" fill="#FFFFFF" x="2" y="10" width="10" height="2"></rect>
                        </g>
                    </g>
                </g>
                <g id="body" transform="translate(0.000000, 40.000000)">
                    <rect id="message-bg" fill="#FFFFFF" x="0" y="0" width="520" height="440"></rect>
                    <g id="actions" transform="translate(16.000000, 391.000000)">
                        <g id="Button">
                            <rect id="background" fill="#417FED" x="0" y="0" width="72" height="36" rx="4"></rect>
                            <text id="发送" fill="#FFFFFF" fill-rule="nonzero" font-family="SimHei" font-size="16" font-weight="normal" letter-spacing="0.685714286">
                                <tspan x="19" y="22">发送</tspan>
                            </text>
                        </g>
                        <g id="icons" transform="translate(88.000000, 5.000000)">
                            <g id="icon-attach" transform="translate(32.000000, 0.000000)">
                                <rect id="bounds" x="0" y="0" width="24" height="24"></rect>
                                <path d="M15.76,8 L17,8 L17,16.56 C17,17.4000042 16.7966687,18.1733298 16.39,18.88 C15.9833313,19.5866702 15.4300035,20.1466646 14.73,20.56 C14.0299965,20.9733354 13.2666708,21.18 12.44,21.18 C11.6133292,21.18 10.8466702,20.9733354 10.14,20.56 C9.4333298,20.1466646 8.8700021,19.5866702 8.45,18.88 C8.0299979,18.1733298 7.82,17.4000042 7.82,16.56 L7.82,6.18 C7.82,5.579997 7.9733318,5.0233359 8.28,4.51 C8.5866682,3.9966641 8.9966641,3.5866682 9.51,3.28 C10.0233359,2.9733318 10.579997,2.82 11.18,2.82 C11.780003,2.82 12.3333308,2.9699985 12.84,3.27 C13.3466692,3.5700015 13.7499985,3.9799974 14.05,4.5 C14.3500015,5.0200026 14.5,5.579997 14.5,6.18 L14.5,14.92 C14.5,15.2933352 14.4066676,15.6399984 14.22,15.96 C14.0333324,16.2800016 13.7833349,16.5333324 13.47,16.72 C13.1566651,16.9066676 12.8133352,17 12.44,17 C12.0666648,17 11.7166683,16.9066676 11.39,16.72 C11.0633317,16.5333324 10.8033343,16.2800016 10.61,15.96 C10.4166657,15.6399984 10.32,15.2933352 10.32,14.92 L10.32,8 L11.58,8 L11.58,14.92 C11.58,15.1600012 11.6633325,15.3566659 11.83,15.51 C11.9966675,15.6633341 12.1999988,15.74 12.44,15.74 C12.6800012,15.74 12.8766659,15.6633341 13.03,15.51 C13.1833341,15.3566659 13.26,15.1600012 13.26,14.92 L13.26,6.18 C13.26,5.8066648 13.1666676,5.4566683 12.98,5.13 C12.7933324,4.8033317 12.5400016,4.5433343 12.22,4.35 C11.8999984,4.1566657 11.5533352,4.06 11.18,4.06 C10.8066648,4.06 10.4600016,4.1566657 10.14,4.35 C9.82,4.5433343 9.5633343,4.8033317 9.37,5.13 C9.1766657,5.4566683 9.08,5.8066648 9.08,6.18 L9.08,16.56 C9.08,17.160003 9.2333318,17.7199974 9.54,18.24 C9.8466682,18.7600026 10.2566641,19.1733318 10.77,19.48 C11.2833359,19.7866682 11.839997,19.94 12.44,19.94 C13.040003,19.94 13.5933308,19.7866682 14.1,19.48 C14.6066692,19.1733318 15.0099985,18.7600026 15.31,18.24 C15.6100015,17.7199974 15.76,17.160003 15.76,16.56 L15.76,8 Z" id="shape" fill="#000000" fill-rule="nonzero" opacity="0.55"></path>
                            </g>
                            <g id="icon-formatting">
                                <rect id="bounds" x="0" y="0" width="24" height="24"></rect>
                                <path d="M9.9,11.65 L14.1,11.65 L12,6.106 L9.9,11.65 Z M11.139,3.775 L12.861,3.775 L17.67,16.039 L15.696,16.039 L14.751,13.414 L9.249,13.414 L8.262,16.039 L6.309,16.039 L11.139,3.775 Z M3.5,17.664 L20.5,17.664 L20.5,20.15 L3.5,20.15 L3.5,17.664 Z" id="shape" fill="#000000" fill-rule="nonzero" opacity="0.55"></path>
                            </g>
                        </g>
                        <g id="icons" transform="translate(438.000000, 5.000000)">
                            <g id="icon-more" transform="translate(28.000000, 0.000000)">
                                <rect id="bounds" x="0" y="0" width="24" height="24"></rect>
                                <path d="M18.984,4.584 L18.984,6.6 L5.016,6.6 L5.016,4.584 L8.496,4.584 L9.528,3.6 L14.496,3.6 L15.528,4.584 L18.984,4.584 Z M6,17.584 L6,7.584 L18,7.584 L18,17.584 C18,18.1280027 17.800002,18.599998 17.4,19 C17,19.400002 16.5280027,19.6 15.984,19.6 L8.016,19.6 C7.47199728,19.6 7,19.400002 6.6,19 C6.199998,18.599998 6,18.1280027 6,17.584 Z" id="shape" fill="#000000" fill-rule="nonzero" opacity="0.55"></path>
                            </g>
                            <g id="icon-discard">
                                <rect id="bounds" x="0" y="0" width="24" height="24"></rect>
                                <path d="M12,16.32 C12.4533356,16.32 12.846665,16.486665 13.18,16.82 C13.513335,17.153335 13.68,17.5466644 13.68,18 C13.68,18.4533356 13.513335,18.846665 13.18,19.18 C12.846665,19.513335 12.4533356,19.68 12,19.68 C11.5466644,19.68 11.153335,19.513335 10.82,19.18 C10.486665,18.846665 10.32,18.4533356 10.32,18 C10.32,17.5466644 10.486665,17.153335 10.82,16.82 C11.153335,16.486665 11.5466644,16.32 12,16.32 Z M12,10.32 C12.4533356,10.32 12.846665,10.486665 13.18,10.82 C13.513335,11.153335 13.68,11.5466644 13.68,12 C13.68,12.4533356 13.513335,12.846665 13.18,13.18 C12.846665,13.513335 12.4533356,13.68 12,13.68 C11.5466644,13.68 11.153335,13.513335 10.82,13.18 C10.486665,12.846665 10.32,12.4533356 10.32,12 C10.32,11.5466644 10.486665,11.153335 10.82,10.82 C11.153335,10.486665 11.5466644,10.32 12,10.32 Z M12,7.68 C11.5466644,7.68 11.153335,7.513335 10.82,7.18 C10.486665,6.846665 10.32,6.4533356 10.32,6 C10.32,5.5466644 10.486665,5.153335 10.82,4.82 C11.153335,4.486665 11.5466644,4.32 12,4.32 C12.4533356,4.32 12.846665,4.486665 13.18,4.82 C13.513335,5.153335 13.68,5.5466644 13.68,6 C13.68,6.4533356 13.513335,6.846665 13.18,7.18 C12.846665,7.513335 12.4533356,7.68 12,7.68 Z" id="shape" fill="#000000" fill-rule="nonzero" opacity="0.55"></path>
                            </g>
                        </g>
                    </g>
                    <g id="content" transform="translate(16.000000, 10.000000)">
                        <g id="input">
                            <text id="发件人：support@hedwi.co" font-family="STSongti-SC-Regular, Songti SC" font-size="14" font-weight="normal" fill="#777777">
                                <tspan x="0" y="15">发件人：support@hedwi.com</tspan>
                            </text>
                            <rect id="divider" fill-opacity="0.122" fill="#64798F" x="0" y="27" width="488" height="1"></rect>
                        </g>
                        <g id="input" transform="translate(0.000000, 37.000000)">
                            <text id="收件人：" font-family="STSongti-SC-Regular, Songti SC" font-size="14" font-weight="normal" fill="#777777">
                                <tspan x="0" y="15">收件人：</tspan>
                            </text>
                            <rect id="divider" fill-opacity="0.122" fill="#64798F" x="0" y="27" width="488" height="1"></rect>
                        </g>
                        <g id="input" transform="translate(0.000000, 74.000000)">
                            <text id="《念奴娇·赤壁怀古》" font-family="STSongti-SC-Regular, Songti SC" font-size="14" font-weight="normal" fill="#000000">
                                <tspan x="0" y="15">《念奴娇·赤壁怀古》</tspan>
                            </text>
                            <rect id="divider" fill-opacity="0.122" fill="#64798F" x="0" y="27" width="488" height="1"></rect>
                        </g>
                        <text id="大江东去，浪淘尽，千古风流人物。-故垒西" font-family="STKaitiSC-Regular, Kaiti SC" font-size="16" font-weight="normal" line-spacing="24" letter-spacing="1.2" fill="#222222">
                            <tspan x="0" y="139">大江东去，浪淘尽，千古风流人物。</tspan>
                            <tspan x="0" y="163">故垒西边，人道是，三国周郎赤壁。</tspan>
                            <tspan x="0" y="187">乱石穿空，惊涛拍岸，卷起千堆雪。</tspan>
                            <tspan x="0" y="211">江山如画，一时多少豪杰。</tspan>
                            <tspan x="0" y="235">遥想公瑾当年，小乔初嫁了，雄姿英发。</tspan>
                            <tspan x="0" y="259">羽扇纶巾，谈笑间，樯橹灰飞烟灭。</tspan>
                            <tspan x="0" y="283">故国神游，多情应笑我，早生华发。</tspan>
                            <tspan x="0" y="307">人生如梦，一樽还酹江月。</tspan>
                        </text>
                    </g>
                </g>
            </g>
        </g>
        <g id="直线-4" stroke-linecap="square">
            <use fill="black" fill-opacity="1" filter="url(#filter-8)" xlink:href="#path-7"></use>
            <use stroke-opacity="0.25" stroke="#505050" stroke-width="1" xlink:href="#path-7"></use>
        </g>
        <g id="Mail-options" transform="translate(1541.000000, 150.000000)" fill="#606060" fill-rule="nonzero">
            <g id="Print" transform="translate(62.000000, 5.000000)">
                <path d="M17,5.55555556 L3,5.55555556 C1.34,5.55555556 0,7.04444444 0,8.88888889 L0,15.5555556 L4,15.5555556 L4,20 L16,20 L16,15.5555556 L20,15.5555556 L20,8.88888889 C20,7.04444444 18.66,5.55555556 17,5.55555556 Z M14,17.7777778 L6,17.7777778 L6,12.2222222 L14,12.2222222 L14,17.7777778 Z M17,10 C16.45,10 16,9.5 16,8.88888889 C16,8.27777778 16.45,7.77777778 17,7.77777778 C17.55,7.77777778 18,8.27777778 18,8.88888889 C18,9.5 17.55,10 17,10 Z M16,0 L4,0 L4,4.44444444 L16,4.44444444 L16,0 Z"></path>
            </g>
        </g>
        <g id="Top-Nav" transform="translate(250.000000, 74.000000)">
            <line x1="0" y1="55.5" x2="1418" y2="55.5" id="Divider" stroke="#F0F2F3" stroke-width="2"></line>
            <line x1="0" y1="1" x2="1418" y2="1" id="Divider" stroke="#F0F2F3" stroke-width="2"></line>
            <g id="list-actions" transform="translate(17.000000, 20.000000)" fill="#606060">
                <g id="viewheadline" transform="translate(1337.000000, 0.000000)" fill-rule="nonzero">
                    <path d="M0,11.4285714 L16,11.4285714 L16,9.14285714 L0,9.14285714 L0,11.4285714 Z M0,16 L16,16 L16,13.7142857 L0,13.7142857 L0,16 Z M0,6.85714286 L16,6.85714286 L16,4.57142857 L0,4.57142857 L0,6.85714286 Z M0,0 L0,2.28571429 L16,2.28571429 L16,0 L0,0 Z" id="形状"></path>
                </g>
                <polygon id="Path" fill-rule="nonzero" points="1306 13.59 1310.58 9 1306 4.41 1307.41 3 1313.41 9 1307.41 15"></polygon>
                <polygon id="Path" points="28 11 32 7 24 7"></polygon>
                <polygon id="Path-Copy" fill-rule="nonzero" transform="translate(1263.705000, 9.000000) scale(-1, 1) translate(-1263.705000, -9.000000) " points="1260 13.59 1264.58 9 1260 4.41 1261.41 3 1267.41 9 1261.41 15"></polygon>
                <path d="M108,4 C109.104569,4 110,3.1045695 110,2 C110,0.8954305 109.104569,0 108,0 C106.895431,0 106,0.8954305 106,2 C106,3.1045695 106.895431,4 108,4 Z M108,10 C109.104569,10 110,9.1045695 110,8 C110,6.8954305 109.104569,6 108,6 C106.895431,6 106,6.8954305 106,8 C106,9.1045695 106.895431,10 108,10 Z M108,16 C109.104569,16 110,15.1045695 110,14 C110,12.8954305 109.104569,12 108,12 C106.895431,12 106,12.8954305 106,14 C106,15.1045695 106.895431,16 108,16 Z" id="Combined-Shape"></path>
                <path d="M73.2549861,2.74501394 L76,0 L76,6.86253485 L69.1374652,6.86253485 L71.8824791,4.11752091 C69.6109801,1.84602187 65.9189363,1.84602187 63.6474373,4.11752091 C61.3759382,6.38901994 61.3759382,10.0810637 63.6474373,12.3525627 C65.9189363,14.6240618 69.6109801,14.6240618 71.8824791,12.3525627 L73.2549861,13.7250697 C70.2217457,16.7583101 65.3081707,16.7583101 62.2749303,13.7250697 C59.2416899,10.6918293 59.2416899,5.77825434 62.2749303,2.74501394 C65.3081707,-0.288226464 70.2217457,-0.288226464 73.2549861,2.74501394 Z" id="Path" fill-rule="nonzero"></path>
                <path d="M14,1 L2,1 L0,3 L0,15 L2,17 L14,17 L16,15 L16,3 L14,1 Z M14,3 L14,15 L2,15 L2,3 L14,3 Z" id="Rectangle" fill-rule="nonzero"></path>
            </g>
        </g>
        <line x1="250" y1="73.5" x2="250" y2="848" id="直线-2" stroke="#F0F2F3" stroke-width="2" stroke-linecap="square"></line>
        <polygon id="矩形" stroke="#C4C4C4" stroke-width="0.5" fill="#FFFFFF" points="675 130 679 130 679 282.612701 679 849 675 849"></polygon>
    </g>
</svg>
